<svg width="16" height="16" viewBox="0 0 16 16" fill="none" xmlns="http://www.w3.org/2000/svg">
<path d="M8 3.25V5H9.75C10.0961 5 10.4345 4.89736 10.7222 4.70507C11.01 4.51278 11.2343 4.23946 11.3668 3.91969C11.4992 3.59992 11.5339 3.24806 11.4664 2.90859C11.3988 2.56912 11.2322 2.2573 10.9874 2.01256C10.7427 1.76782 10.4309 1.60115 10.0914 1.53363C9.75194 1.4661 9.40007 1.50076 9.0803 1.63321C8.76053 1.76566 8.48722 1.98997 8.29493 2.27775C8.10264 2.56554 8 2.90388 8 3.25V3.25Z" stroke="#475569" stroke-miterlimit="10" stroke-linecap="round"/>
<path d="M8 3.25C8 3.73312 8 5 8 5H6.25C5.90388 5 5.56554 4.89736 5.27775 4.70507C4.98997 4.51278 4.76566 4.23946 4.63321 3.91969C4.50076 3.59992 4.4661 3.24806 4.53363 2.90859C4.60115 2.56912 4.76782 2.2573 5.01256 2.01256C5.25731 1.76782 5.56913 1.60115 5.90859 1.53363C6.24806 1.4661 6.59993 1.50076 6.9197 1.63321C7.23947 1.76566 7.51278 1.98997 7.70507 2.27775C7.89737 2.56554 8 2.90388 8 3.25V3.25Z" stroke="#475569" stroke-miterlimit="10" stroke-linecap="round"/>
<path d="M13 5H3C2.44772 5 2 5.44772 2 6V7.5C2 8.05228 2.44772 8.5 3 8.5H13C13.5523 8.5 14 8.05228 14 7.5V6C14 5.44772 13.5523 5 13 5Z" stroke="#475569" stroke-linecap="round" stroke-linejoin="round"/>
<path d="M13 8.5V13C13 13.3978 12.842 13.7794 12.5607 14.0607C12.2794 14.342 11.8978 14.5 11.5 14.5H4.5C4.10218 14.5 3.72064 14.342 3.43934 14.0607C3.15804 13.7794 3 13.3978 3 13V8.5" stroke="#475569" stroke-linecap="round" stroke-linejoin="round"/>
<path d="M8 5V14.5" stroke="#475569" stroke-linecap="round" stroke-linejoin="round"/>
</svg>
