<svg width="16" height="16" viewBox="0 0 16 16" fill="none" xmlns="http://www.w3.org/2000/svg">
<path d="M14.4316 1.68185C14.4263 1.6562 14.4138 1.63261 14.3955 1.61384C14.3773 1.59507 14.354 1.58191 14.3285 1.57591C12.6291 1.16029 8.70352 2.64122 6.57446 4.76872C6.19501 5.14505 5.84902 5.55368 5.5404 5.98997C4.88415 5.9306 4.2279 5.9806 3.66915 6.22435C2.09133 6.9181 1.63227 8.72997 1.50415 9.50779C1.4972 9.55041 1.50017 9.59405 1.51281 9.63534C1.52545 9.67663 1.54743 9.71446 1.57705 9.74588C1.60666 9.77731 1.64311 9.8015 1.68358 9.81657C1.72405 9.83164 1.76744 9.83719 1.8104 9.83279L4.34383 9.55466C4.34559 9.74575 4.35706 9.93662 4.37821 10.1265C4.39143 10.2578 4.45 10.3804 4.54383 10.4731L5.52477 11.454C5.61759 11.5479 5.74027 11.6065 5.87165 11.6197C6.06042 11.6407 6.25015 11.6522 6.44008 11.654L6.16227 14.1853C6.15793 14.2282 6.16352 14.2715 6.1786 14.3119C6.19367 14.3523 6.21784 14.3887 6.24922 14.4183C6.2806 14.4478 6.31837 14.4698 6.35959 14.4825C6.40081 14.4951 6.44439 14.4981 6.48696 14.4912C7.26508 14.3662 9.08071 13.9072 9.7704 12.3297C10.0141 11.7703 10.0641 11.1175 10.0079 10.4643C10.4455 10.156 10.8553 9.81001 11.2326 9.43029C13.3695 7.30529 14.841 3.46591 14.4316 1.68185ZM9.33321 6.67747C9.14656 6.49087 9.01945 6.25311 8.96793 5.99426C8.91642 5.73541 8.94283 5.46709 9.04382 5.22325C9.1448 4.97941 9.31583 4.77099 9.53528 4.62435C9.75472 4.47771 10.0127 4.39945 10.2766 4.39945C10.5406 4.39945 10.7986 4.47771 11.018 4.62435C11.2375 4.77099 11.4085 4.97941 11.5095 5.22325C11.6105 5.46709 11.6369 5.73541 11.5854 5.99426C11.5338 6.25311 11.4067 6.49087 11.2201 6.67747C11.0963 6.80154 10.9492 6.89996 10.7873 6.96712C10.6255 7.03428 10.4519 7.06884 10.2766 7.06884C10.1014 7.06884 9.92784 7.03428 9.76595 6.96712C9.60406 6.89996 9.45701 6.80154 9.33321 6.67747V6.67747Z" stroke="#475569" stroke-linecap="round" stroke-linejoin="round"/>
<path d="M3.42625 11C3.11472 11.0382 2.8249 11.1795 2.60281 11.4012C2.05219 11.9537 2 14 2 14C2 14 4.0475 13.9478 4.59844 13.3966C4.82112 13.1748 4.96258 12.8845 5 12.5725" stroke="#475569" stroke-linecap="round" stroke-linejoin="round"/>
</svg>
